<?xml version="1.0" standalone="no"?>
<!DOCTYPE svg PUBLIC "-//W3C//DTD SVG 20010904//EN"
 "http://www.w3.org/TR/2001/REC-SVG-20010904/DTD/svg10.dtd">
<svg version="1.0" xmlns="http://www.w3.org/2000/svg"
 width="410.000000pt" height="148.000000pt" viewBox="0 0 410.000000 148.000000"
 preserveAspectRatio="xMidYMid meet">

<g transform="translate(0.000000,148.000000) scale(0.100000,-0.100000)"
fill="#000000" stroke="none">
<path d="M510 1194 c-98 -39 -140 -94 -140 -184 0 -108 77 -185 185 -185 69 0
121 28 156 84 58 91 25 222 -67 266 -40 19 -109 29 -134 19z"/>
<path d="M930 805 l0 -395 95 0 95 0 0 46 0 46 40 -36 c56 -50 104 -69 180
-69 103 -1 183 52 232 152 18 37 22 64 22 136 1 79 -2 96 -26 140 -52 99 -138
154 -241 155 -71 0 -120 -20 -169 -68 l-38 -36 0 162 0 162 -95 0 -95 0 0
-395z m410 27 c73 -36 101 -143 59 -229 -24 -50 -65 -76 -119 -76 -49 0 -87
20 -124 66 -26 33 -31 47 -30 95 0 34 7 70 17 90 36 67 124 91 197 54z"/>
<path d="M1815 963 c-99 -36 -163 -103 -191 -201 -20 -69 -13 -145 21 -211 77
-153 308 -205 487 -109 53 28 97 64 87 71 -2 2 -33 20 -67 40 l-64 37 -25 -20
c-63 -50 -171 -49 -229 2 -19 17 -34 39 -34 49 0 18 13 19 228 21 l227 3 -1
60 c-1 106 -62 198 -164 247 -62 31 -204 36 -275 11z m211 -142 c17 -11 36
-33 42 -50 l11 -31 -140 0 c-76 0 -139 3 -139 6 0 16 35 63 59 77 37 23 128
22 167 -2z"/>
<path d="M2490 971 c-96 -31 -177 -108 -206 -193 -21 -65 -15 -167 14 -224 59
-116 217 -183 367 -155 66 12 146 48 189 84 l29 24 -68 41 c-68 41 -69 41 -94
22 -83 -59 -218 -43 -256 30 -8 16 -15 31 -15 35 0 3 103 5 229 5 l229 0 5 28
c13 67 -26 174 -85 228 -62 59 -113 78 -218 81 -52 1 -106 -1 -120 -6z m206
-165 c61 -61 53 -66 -101 -66 -139 0 -145 2 -124 41 19 37 70 59 133 59 53 0
61 -3 92 -34z"/>
<path d="M3244 961 c-22 -10 -57 -33 -77 -51 l-37 -32 0 41 0 41 -95 0 -95 0
0 -390 0 -390 95 0 95 0 0 156 0 156 42 -37 c130 -111 321 -64 406 99 22 43
26 64 27 136 0 73 -4 93 -28 142 -32 66 -90 120 -146 136 -57 18 -140 14 -187
-7z m114 -131 c38 -24 71 -88 72 -140 0 -60 -38 -122 -93 -149 -81 -40 -158
-7 -193 84 -53 141 91 280 214 205z"/>
<path d="M535 783 c-11 -2 -30 -6 -42 -9 -33 -6 -94 -63 -109 -101 -9 -21 -14
-73 -14 -148 l0 -115 110 0 c150 0 200 21 241 102 21 41 25 111 8 155 -27 73
-122 130 -194 116z"/>
</g>
</svg>
