<?xml version="1.0" encoding="UTF-8"?><svg id="Layer_2" xmlns="http://www.w3.org/2000/svg" viewBox="0 0 202.6 63.8"><g id="Layer_1-2"><circle cx="11.8" cy="11.8" r="11.8"/><path d="M11.8,25.8c-6.5,0-11.8,5.3-11.8,11.8v11.8h11.8c6.5,0,11.8-5.3,11.8-11.8h0c0-6.5-5.3-11.8-11.8-11.8Z"/><path d="M68.5,15.9c-2.6-1.6-5.5-2.5-8.6-2.5s-5.9.8-8.4,2.4c-1.7,1.1-3.1,2.5-4.3,4.2V0h-11.9v49.1h11.9v-6.1c1.4,2,3,3.6,5,4.8,2.6,1.6,5.4,2.5,8.6,2.5s5.9-.8,8.4-2.4c2.5-1.6,4.4-3.8,5.8-6.6,1.4-2.8,2.1-6,2.1-9.4s-.8-6.5-2.3-9.3c-1.5-2.8-3.6-5-6.3-6.7ZM64.8,37.2c-.8,1.6-1.8,2.8-3.2,3.7-1.4.9-2.9,1.3-4.5,1.3s-3.3-.5-4.8-1.4c-1.5-.9-2.7-2.1-3.6-3.7-.9-1.6-1.4-3.3-1.4-5.2s.4-3.7,1.2-5.3c.8-1.6,1.9-2.8,3.3-3.7,1.4-.9,2.9-1.3,4.6-1.3s3.4.5,4.9,1.4c1.5.9,2.6,2.1,3.5,3.7.9,1.6,1.3,3.3,1.3,5.3s-.4,3.7-1.2,5.2Z"/><path d="M109,16c-3.1-1.7-6.6-2.6-10.7-2.6s-7.6.8-10.7,2.5c-3.1,1.7-5.5,3.9-7.2,6.7-1.7,2.8-2.6,5.9-2.6,9.2,0,3.6.8,6.8,2.4,9.6,1.7,2.8,4.1,5,7.2,6.6,3.1,1.6,6.8,2.4,11.1,2.4s6.9-.7,10-2c3.1-1.3,5.6-3.1,7.6-5.3l-8.5-5c-.9,1-2.1,1.9-3.7,2.5-1.6.7-3.3,1-5.1,1-2.7,0-4.9-.6-6.6-1.8-1.7-1.2-2.7-2.8-2.9-4.7h28.6c.1-.6.3-1.6.4-3.2,0-3.2-.7-6.3-2.3-9.1s-3.9-5.1-6.9-6.8ZM89.5,28.7c.5-2,1.5-3.6,3.1-4.8,1.6-1.2,3.6-1.8,6-1.8s3.1.3,4.3.9c1.2.6,2.1,1.4,2.8,2.4.7,1,1,2.1,1.1,3.3h-17.4Z"/><path d="M150.1,16c-3.1-1.7-6.6-2.6-10.7-2.6s-7.6.8-10.7,2.5c-3.1,1.7-5.5,3.9-7.2,6.7-1.7,2.8-2.6,5.9-2.6,9.2,0,3.6.8,6.8,2.4,9.6,1.7,2.8,4.1,5,7.2,6.6,3.1,1.6,6.8,2.4,11.1,2.4s6.9-.7,10-2c3.1-1.3,5.6-3.1,7.6-5.3l-8.5-5c-.9,1-2.1,1.9-3.7,2.5-1.6.7-3.3,1-5.1,1-2.7,0-4.9-.6-6.6-1.8-1.7-1.2-2.7-2.8-2.9-4.7h28.6c.1-.6.3-1.6.4-3.2,0-3.2-.7-6.3-2.3-9.1s-3.9-5.1-6.9-6.8ZM130.5,28.7c.5-2,1.5-3.6,3.1-4.8,1.6-1.2,3.6-1.8,6-1.8s3.1.3,4.3.9c1.2.6,2.1,1.4,2.8,2.4.7,1,1,2.1,1.1,3.3h-17.4Z"/><path d="M200.5,22.5c-1.4-2.8-3.3-5-5.8-6.6-2.5-1.6-5.3-2.4-8.3-2.4s-6,.8-8.6,2.5c-2,1.2-3.6,2.8-5,4.7v-6h-11.9v49.1h11.9v-20.1c1.2,1.6,2.6,3.1,4.2,4.2,2.5,1.6,5.3,2.5,8.4,2.5s5.9-.8,8.6-2.5,4.7-3.9,6.3-6.7c1.6-2.8,2.3-5.9,2.3-9.3s-.7-6.6-2.1-9.4ZM190.2,37.1c-.9,1.6-2,2.8-3.5,3.7-1.5.9-3.1,1.3-4.8,1.3s-3.2-.4-4.6-1.3c-1.4-.9-2.5-2.1-3.3-3.7-.8-1.6-1.2-3.3-1.2-5.3s.5-3.6,1.4-5.2c.9-1.6,2.1-2.8,3.6-3.7,1.5-.9,3.1-1.4,4.8-1.4s3.2.4,4.6,1.3c1.3.9,2.4,2.1,3.2,3.6.8,1.5,1.2,3.3,1.2,5.2s-.4,3.8-1.3,5.3Z"/></g></svg>